<svg xmlns="http://www.w3.org/2000/svg" xmlns:xlink="http://www.w3.org/1999/xlink" width="765.962" height="592.481" viewBox="0 0 765.962 592.481">
  <defs>
    <linearGradient id="linear-gradient" x1="0.5" y1="0.848" x2="0.5" y2="-0.086" gradientUnits="objectBoundingBox">
      <stop offset="0.002" stop-color="#d6e1f4"/>
      <stop offset="0.343" stop-color="#e0e7f3"/>
      <stop offset="0.997" stop-color="#f2f2f2"/>
    </linearGradient>
    <linearGradient id="linear-gradient-2" y1="0.5" x2="1" y2="0.5" gradientUnits="objectBoundingBox">
      <stop offset="0" stop-color="#ffae2a"/>
      <stop offset="0.383" stop-color="#ffcc15"/>
      <stop offset="0.763" stop-color="#ffe305"/>
      <stop offset="1" stop-color="#ffec00"/>
    </linearGradient>
    <linearGradient id="linear-gradient-3" y1="0.5" x2="1" y2="0.5" gradientUnits="objectBoundingBox">
      <stop offset="0.005" stop-color="#008da2"/>
      <stop offset="0.41" stop-color="#1aaabf"/>
      <stop offset="1" stop-color="#47dcf2"/>
    </linearGradient>
    <linearGradient id="linear-gradient-4" x1="0.79" y1="0.874" x2="0.104" y2="-0.089" xlink:href="#linear-gradient-2"/>
    <linearGradient id="linear-gradient-6" x1="0.162" y1="1.106" x2="0.676" y2="0.183" gradientUnits="objectBoundingBox">
      <stop offset="0.002" stop-color="#574dff"/>
      <stop offset="0.18" stop-color="#696dff"/>
      <stop offset="0.424" stop-color="#7f93ff"/>
      <stop offset="0.65" stop-color="#8faeff"/>
      <stop offset="0.849" stop-color="#99bfff"/>
      <stop offset="1" stop-color="#9dc5ff"/>
    </linearGradient>
    <linearGradient id="linear-gradient-7" x1="0.468" y1="0.564" x2="1.494" y2="-1.491" xlink:href="#linear-gradient-6"/>
    <clipPath id="clip-path">
      <path id="Path_18042" data-name="Path 18042" d="M415.658,346.543c-5.113,21.657-12.539,42.428-32.855,57.166-1.687,1.216-3.412,2.413-5.211,3.551-1.049.665-2.1,1.311-3.185,1.939-.339.228-.676.417-1.031.626-1.987,1.159-4.011,2.26-6.11,3.3-1.575.8-3.187,1.559-4.817,2.279q-3.6,1.653-7.365,3.076a123.58,123.58,0,0,1-12.015,3.97c-.412.134-.844.248-1.255.36a139.42,139.42,0,0,1-14.206,3.1c-3.711.646-7.515,1.14-11.358,1.519-2.491.228-5,.419-7.533.514l-1.05.057c-2.231.114-4.48.152-6.747.152h-1.35c-62.73-.514-110.835-36.918-113.371-81.609-5.641-99.446,61.33-170.994,124.679-170.994C374.245,175.549,439.869,243.984,415.658,346.543Z" transform="translate(-185.865 -175.549)" fill="none"/>
    </clipPath>
    <linearGradient id="linear-gradient-8" x1="0.5" y1="0.588" x2="0.5" y2="-0.053" gradientUnits="objectBoundingBox">
      <stop offset="0.001" stop-color="#ff2c6e"/>
      <stop offset="0.145" stop-color="#f7296a"/>
      <stop offset="0.365" stop-color="#e22161"/>
      <stop offset="0.633" stop-color="#bf1551"/>
      <stop offset="0.936" stop-color="#90033c"/>
      <stop offset="1" stop-color="#850038"/>
    </linearGradient>
    <linearGradient id="linear-gradient-9" x1="0.5" y1="1.858" x2="0.5" y2="-0.506" xlink:href="#linear-gradient-2"/>
    <linearGradient id="linear-gradient-10" x1="0.5" y1="1.981" x2="0.5" y2="-0.49" xlink:href="#linear-gradient-2"/>
    <linearGradient id="linear-gradient-11" x1="0.5" y1="0.809" x2="0.5" y2="-0.205" xlink:href="#linear-gradient-2"/>
  </defs>
  <g id="Group_7475" data-name="Group 7475" transform="translate(-47.805 -79.415)">
    <g id="BACKGROUND" transform="translate(47.805 79.415)">
      <path id="Path_18007" data-name="Path 18007" d="M796.908,383.424c-10.895-24.432-31.678-46.662-40.158-72.926-14.4-44.606,8.628-93.734-.669-139.785-8.141-40.326-43.336-73-81.8-75.936-31.972-2.44-62.284,13.484-94.009,17.6-53.223,6.907-105.233-19.51-158.342-29.017A254.507,254.507,0,0,0,279.584,98.931c-29.144,12.156-58.973,34.091-63.231,67.29-3.264,25.445,9.534,51.921,3.283,76.674-4.7,18.606-19.494,32.425-35.609,41.012s-33.906,12.981-50.8,19.715c-36.194,14.431-69.22,41.153-85.5,78.524S34.842,467.993,61.441,498.641c12.7,14.634,29.492,24.4,43.58,37.506,18.3,17.031,17.923,44.608,28.728,66.094,11.135,22.148,31.191,36.72,51.368,48.429C210.337,665.306,239.6,672.2,267.965,668.6c40.547-5.136,77.245-29.221,117.917-33.26,41.228-4.093,81.67,12.707,121.962,23.853,44.549,12.325,91.671,17.841,136.129,6.6s85.993-41.085,105.132-85.245c14.283-32.955,15.458-71.3,30.275-103.98,8.888-19.6,22.768-37.6,24.3-59.429C804.526,405.138,801.657,394.072,796.908,383.424Z" transform="translate(-37.867 -79.415)" opacity="0.05" fill="url(#linear-gradient)"/>
    </g>
    <g id="OBJECTS" transform="translate(25.181 122.001)">
      <g id="Group_7448" data-name="Group 7448" transform="translate(513.486 15.296)">
        <g id="Group_7447" data-name="Group 7447" transform="translate(9.148)">
          <path id="Path_18008" data-name="Path 18008" d="M436.528,207.932c-20.648-7.856-2.033-17.044,10.929-20.71,10.483-2.966,36.737-7.8,26.084-25.7-11.162-18.745-21.855,4.407-30.733,7.021-19.845,5.842.806-19.05,5.735-25.688,6.752-9.093,20.958-27.673,3.417-30.769-14.187-2.5-28.88,17.263-34.765,27.114-4.2,7.025-14.511,39.921-25.251,32.627-8.129-5.521.28-38.459-19.125-14.916-7.891,9.571-6.618,24.955-10.174,35.9-5.211,16.04-7.408,22.686-21.645,18.569-7.378-2.133-7.617-11.392-16.721-5.14-4.688,3.221-6.078,18.041-6.039,23.188.366,47.276,19.268,78.938,28.186,83.02,12.072,5.527,34.5-2.456,44.827-8.385,5.133-2.948,14.493-7.82,13.834-15.292-.74-8.387-13.687-7.182-14.167-12.107-1.362-13.967,24.334-.622,31.45-2.614,9.215-2.579,24.48-19.043,14.811-27.753-.992-.9-41.157-3.8-18.181-16.591,12.723-7.08,26.365,12.564,38.637-1.382C475.3,208.257,444.27,210.877,436.528,207.932Z" transform="translate(-318.24 -111.871)" fill="url(#linear-gradient-2)"/>
          <path id="Path_18009" data-name="Path 18009" d="M430.273,197.218c-8.872-3.745-18.042-7.126-27.7-7.949,6.795-8.491,13.916-16.9,19.087-26.328,1.457-2.659-2.887-4.5-4.335-1.855-.631,1.15-1.332,2.267-2.015,3.392-.745-2.882.148-7.185.419-9.484.7-5.937,2.934-11.273,5.268-16.717,1.195-2.787-3.137-4.647-4.335-1.855-3.03,7.066-5.42,13.812-5.955,21.533-.262,3.8-.487,7.908,1.716,11.048-7.306,10.843-16.407,20.828-24.026,31.346a46.132,46.132,0,0,1-6.75-16.648c-1.2-6.659-.387-13.427-1.077-20.129-.31-3.021-4.992-2.438-4.68.585.831,8.059-.114,15.977,1.912,23.924a53.2,53.2,0,0,0,7.667,16.4A290.673,290.673,0,0,0,361.977,244.2c-2.208,4.617-4.223,9.322-6.176,14.057a87.715,87.715,0,0,1-10.574-20.987c-1.409-4.2-2.971-8.653-3.535-13.053-.426-3.333-.075-6.479-1.387-9.639-1.163-2.805-5.543-1.056-4.376,1.753,1.607,3.874,1.065,8.922,2.083,13.061a121.524,121.524,0,0,0,3.592,11.843,93,93,0,0,0,11.836,22,2.335,2.335,0,0,0,.239.225c-3.294,8.18-6.513,16.393-10.176,24.4a2.2,2.2,0,0,0-.726.951,21.825,21.825,0,0,0-1.277,3.226c-6.549,16.527-13.142,33.044-19.478,49.651-1.079,2.828,3.251,4.7,4.335,1.855,6.313-16.55,12.885-33.01,19.41-49.48.041-.07.1-.112.134-.189,2.094-4.314,4.014-8.712,5.867-13.14,8.578,2.181,18.112-.325,26.114-3.54,2.82-1.132,1.066-5.511-1.755-4.376-6.955,2.795-15.009,4.967-22.526,3.485,4.125-10.13,8.011-20.375,12.71-30.241,1.869-3.925,3.872-7.781,5.96-11.588a2.311,2.311,0,0,0,.482.321,69.217,69.217,0,0,0,36.837,4.681c2.991-.469,2.422-5.152-.587-4.68a64.384,64.384,0,0,1-34.4-4.337c-.021-.009-.041,0-.064-.012a357.408,357.408,0,0,1,21.324-32.477c1.3-1.783,2.652-3.544,4.021-5.3a1.962,1.962,0,0,0,1.762,1.245c9.373.749,18.169,4.013,26.767,7.642C431.213,202.734,433.073,198.4,430.273,197.218Z" transform="translate(-315.41 -93.721)" fill="#f46d6d"/>
        </g>
        <path id="Path_18010" data-name="Path 18010" d="M313.866,353.655c12.04-12.908,22.324-26.658,35.075-38.626-11.019-17.457-15.333-50.215-12.53-53.639,6.3-7.7,14.242,4.294,15.811,10.126,2.837,10.554,1.311,32.634-.531,41,1.514-1.35,3.053-2.68,4.648-3.973q5.249-4.259,10.492-8.542c-3.256-6.183-10.861-19-6.625-39.858.71-3.5,1.974-8.086,5.7-9.441,5.177-1.881,5.559,3.92,5.7,7.59.239,6.3-.428,27.9-.173,37.963q10.5-8.568,21.042-17.085c-3.948-12.946-8.669-28.654-2.875-41.8,3.79-8.6,10.563-1.434,12.068,4.253,2.695,10.187.7,22.128-2.925,32.525,3.328-2.661,6.654-5.32,10-7.947.6-.469,1.207-.926,1.807-1.393-2.486-6.19-5.541-11.892-5.782-18.795-.239-6.8,2.725-12.99,7.1-18.039,1.926-2.226,3.957-5.2,7.182-5.571,4.524-.528,2.627,4.312,1.776,7.262a182.382,182.382,0,0,0-4.4,19.191c-.613,3.54-1.3,6.839-2.2,10.2a25.242,25.242,0,0,0-.514,3.312q7.2-5.505,14.625-10.764c-.307-11.426-.6-25.245,7.06-34.642,5.026-6.162,8.936,1.207,8.885,6.185-.08,7.718-3.322,15.722-7.628,22.708q3.28-2.218,6.6-4.38c3.754-12.855,8.22-28.834,20.188-36.5,7.615-4.881,9.258,4.66,7.449,10.1a44.253,44.253,0,0,1-8.94,14.884c1.049-.613,2.092-1.239,3.146-1.844,2.472-1.416,4.979-2.727,7.512-3.959,1.7-11.335,3.8-25.087,13.026-33.039,6.024-5.19,8.587,2.75,7.669,7.64-1.461,7.765-6.236,15.246-11.865,21.458,3.959-1.635,7.965-3.135,12-4.562,2.793-8.929,6.235-19.708,14.659-24.951,5.527-3.44,6.6,3.3,5.241,7.148-1.974,5.573-6.16,10.606-10.941,14.727,4.442-1.491,8.9-2.969,13.338-4.516,2.572-3.346,5.537-6.675,8.182-9.513,3.128-3.353,7.121-6.6,12.029-6.181,6.468.553,7.738,5.127,4.111,10.172a15,15,0,0,1-6.363,4.927,12.955,12.955,0,0,1,6.406,2.882c4.257,3.977.357,7.824-4.26,8.706-5.141.984-10.438-.954-15.426-1.93-3.692-.722-7.6-.358-11.3-.7-2.948.992-5.894,1.98-8.828,2.987,7.658-.48,16.065.432,22.39,4.177,3.508,2.076,7.009,7.941.56,8.846-10.345,1.45-20.389-5.352-28.482-10.547l-.093-.5a182.606,182.606,0,0,0-24.256,10.392,31.393,31.393,0,0,1,7.7.885c4.5,1.134,10.208,6.4,3.465,9.47-8.662,3.939-18.815,2.042-27.912-.439q-12.281,7.688-24.106,16.141c8.585-3.012,18.355-4.662,26.761-2.543,4.82,1.216,10.946,6.868,3.715,10.155-11.6,5.275-25.7.792-36.968-2.486l-.15-.3q-5.476,4.058-10.825,8.239c-1.723,1.354-3.413,2.741-5.122,4.109,11.745-4.412,25.03-7.091,36.281-4.715,6.44,1.361,14.417,8.5,4.5,13.193-15.854,7.5-34.569,2.37-49.567-1.38q-7.327,6-14.638,12.029c11.647-.408,35.757-2.695,43.595-2.789,3.665-.041,12.263.828,10.2,6.727-1.145,3.269-7.777,6.042-10.968,6.8-7.112,1.694-33.271-.733-50.37-4.58-3.479,2.818-6.969,5.621-10.506,8.375-1.311,1.02-2.586,2.058-3.843,3.108,17.2-2.117,51.013-4,59.156-1.32,4.141,1.364,10.563,4.649,9.536,9.926-1.065,5.468-9.434,5.15-13.728,6.031-9.891,2.031-41.214-3.289-46.86-5.1-4.369-1.405-8.607-3.809-12.824-5.425q-4.189,3.785-8.082,7.754c13.522,2.787,44.449,7,54.125,9.15,4.4.981,14.447,4.437,10.32,10.921-2.29,3.59-11.007,5.045-15.041,5.058-8.535.029-36.575-9.218-55.982-18.208-8.025,8.723-15.606,17.827-23.96,26.783C315.774,360.052,311.332,356.373,313.866,353.655Z" transform="translate(-313.11 -51.127)" fill="url(#linear-gradient-3)"/>
      </g>
      <g id="Group_7450" data-name="Group 7450" transform="translate(69.457)">
        <g id="Group_7449" data-name="Group 7449" transform="translate(61.992)">
          <path id="Path_18011" data-name="Path 18011" d="M138.4,199.355c20.648-7.856,2.031-17.044-10.929-20.71-10.484-2.966-36.739-7.8-26.084-25.7,11.16-18.745,21.853,4.407,30.733,7.021,19.844,5.842-.808-19.05-5.735-25.688-6.754-9.093-20.96-27.673-3.417-30.769,14.187-2.5,28.878,17.263,34.763,27.114,4.2,7.023,14.513,39.921,25.251,32.627,8.129-5.521-.28-38.459,19.125-14.916,7.891,9.571,6.618,24.953,10.176,35.9,5.209,16.04,7.406,22.686,21.643,18.569,7.378-2.133,7.617-11.394,16.721-5.14,4.689,3.221,6.078,18.041,6.039,23.186-.366,47.277-19.268,78.939-28.184,83.022-12.072,5.527-34.507-2.456-44.829-8.385-5.131-2.948-14.493-7.82-13.834-15.294.74-8.385,13.687-7.18,14.169-12.106,1.362-13.969-24.334-.624-31.452-2.614-9.215-2.579-24.479-19.043-14.811-27.753.993-.9,41.159-3.8,18.182-16.591-12.721-7.08-26.364,12.564-38.637-1.382C99.627,199.678,130.655,202.3,138.4,199.355Z" transform="translate(-98.889 -103.294)" fill="url(#linear-gradient-4)"/>
          <path id="Path_18012" data-name="Path 18012" d="M123.572,188.641c8.872-3.745,18.042-7.126,27.7-7.948-6.8-8.491-13.917-16.9-19.089-26.328-1.457-2.659,2.887-4.5,4.335-1.855.631,1.148,1.334,2.267,2.015,3.39.745-2.882-.148-7.183-.419-9.484-.7-5.935-2.932-11.271-5.266-16.716-1.2-2.787,3.137-4.647,4.334-1.855,3.03,7.064,5.42,13.812,5.955,21.533.262,3.795.489,7.907-1.714,11.048,7.3,10.841,16.405,20.828,24.024,31.346a46.147,46.147,0,0,0,6.75-16.648c1.2-6.659.387-13.427,1.077-20.131.31-3.019,4.992-2.438,4.68.587-.829,8.059.114,15.975-1.912,23.924a53.2,53.2,0,0,1-7.667,16.4,290.494,290.494,0,0,1,23.491,39.721c2.208,4.615,4.225,9.322,6.176,14.057a87.719,87.719,0,0,0,10.574-20.987c1.409-4.2,2.971-8.653,3.535-13.053.428-3.333.075-6.479,1.387-9.641,1.165-2.8,5.543-1.054,4.376,1.755-1.607,3.872-1.063,8.922-2.083,13.061a121.351,121.351,0,0,1-3.59,11.842,93,93,0,0,1-11.838,22c-.071.1-.162.143-.237.227,3.292,8.179,6.511,16.393,10.174,24.4a2.2,2.2,0,0,1,.726.951,21.746,21.746,0,0,1,1.277,3.226c6.549,16.527,13.143,33.042,19.478,49.651,1.079,2.827-3.251,4.7-4.335,1.855-6.313-16.55-12.885-33.01-19.41-49.48-.039-.07-.1-.112-.134-.189-2.094-4.316-4.014-8.712-5.867-13.14-8.578,2.181-18.112-.326-26.114-3.54-2.82-1.133-1.066-5.511,1.755-4.376,6.957,2.795,15.009,4.967,22.526,3.485-4.125-10.131-8.011-20.375-12.71-30.241-1.869-3.927-3.87-7.783-5.96-11.588a2.309,2.309,0,0,1-.482.321,69.215,69.215,0,0,1-36.837,4.681c-2.991-.469-2.422-5.152.589-4.68a64.38,64.38,0,0,0,34.394-4.337c.021-.009.041,0,.064-.012a357.059,357.059,0,0,0-21.324-32.477c-1.3-1.783-2.65-3.544-4.022-5.3a1.962,1.962,0,0,1-1.76,1.245c-9.373.747-18.171,4.011-26.768,7.642C122.632,194.156,120.772,189.824,123.572,188.641Z" transform="translate(-80.639 -85.144)" fill="#f46d6d"/>
        </g>
        <path id="Path_18013" data-name="Path 18013" d="M292.307,345.078c-12.038-12.908-22.324-26.658-35.075-38.626,11.02-17.458,15.335-50.215,12.532-53.64-6.3-7.694-14.244,4.3-15.811,10.126-2.837,10.556-1.311,32.636.53,41-1.514-1.35-3.053-2.68-4.647-3.975q-5.248-4.256-10.492-8.541c3.256-6.185,10.861-19,6.627-39.858-.71-3.5-1.976-8.088-5.7-9.441-5.175-1.881-5.559,3.92-5.7,7.59-.239,6.3.426,27.9.171,37.961q-10.5-8.566-21.042-17.083c3.948-12.946,8.669-28.654,2.875-41.806-3.79-8.6-10.561-1.432-12.066,4.255-2.7,10.187-.7,22.128,2.923,32.525-3.326-2.661-6.654-5.32-10-7.947-.6-.469-1.206-.927-1.807-1.393,2.488-6.19,5.541-11.892,5.783-18.795.239-6.8-2.727-12.99-7.1-18.039-1.928-2.226-3.959-5.195-7.183-5.571-4.524-.528-2.627,4.31-1.776,7.262a182.359,182.359,0,0,1,4.4,19.191c.613,3.54,1.3,6.839,2.2,10.2a25.445,25.445,0,0,1,.515,3.312q-7.2-5.505-14.627-10.764c.309-11.426.6-25.245-7.06-34.642-5.026-6.163-8.937,1.207-8.885,6.183.08,7.72,3.322,15.724,7.629,22.708q-3.282-2.215-6.6-4.378c-3.754-12.855-8.22-28.834-20.188-36.5-7.615-4.879-9.258,4.662-7.449,10.1a44.229,44.229,0,0,0,8.942,14.884c-1.05-.613-2.094-1.239-3.146-1.844-2.474-1.416-4.979-2.729-7.513-3.959-1.7-11.337-3.8-25.087-13.026-33.039-6.024-5.191-8.587,2.748-7.667,7.64,1.461,7.765,6.235,15.246,11.863,21.458-3.959-1.635-7.965-3.135-12-4.562-2.793-8.931-6.233-19.708-14.658-24.951-5.528-3.442-6.6,3.3-5.241,7.146,1.974,5.575,6.16,10.608,10.939,14.729-4.442-1.491-8.9-2.969-13.338-4.516-2.572-3.347-5.537-6.675-8.182-9.513-3.126-3.353-7.119-6.6-12.029-6.183-6.468.553-7.736,5.129-4.109,10.174a14.994,14.994,0,0,0,6.363,4.927,12.954,12.954,0,0,0-6.408,2.882c-4.255,3.977-.357,7.822,4.262,8.706,5.141.984,10.438-.954,15.424-1.93,3.693-.722,7.6-.358,11.3-.7,2.95.992,5.894,1.98,8.828,2.987-7.658-.48-16.065.432-22.39,4.177-3.506,2.076-7.009,7.941-.56,8.844,10.347,1.452,20.391-5.35,28.484-10.545l.091-.5a182.831,182.831,0,0,1,24.256,10.39,31.411,31.411,0,0,0-7.7.886c-4.5,1.134-10.208,6.4-3.465,9.47,8.662,3.938,18.816,2.042,27.912-.439q12.281,7.688,24.106,16.141c-8.585-3.012-18.355-4.662-26.761-2.543-4.82,1.216-10.945,6.868-3.715,10.155,11.6,5.275,25.7.79,36.968-2.486l.15-.3q5.476,4.055,10.827,8.239c1.721,1.352,3.412,2.741,5.12,4.109-11.745-4.412-25.03-7.091-36.279-4.715-6.442,1.359-14.419,8.5-4.5,13.193,15.856,7.5,34.569,2.368,49.569-1.38q7.324,6,14.636,12.027c-11.647-.407-35.757-2.693-43.595-2.787-3.665-.043-12.261.828-10.2,6.727,1.145,3.269,7.776,6.042,10.968,6.8,7.11,1.694,33.269-.733,50.368-4.58,3.479,2.818,6.971,5.621,10.506,8.375,1.311,1.02,2.586,2.058,3.843,3.107-17.2-2.117-51.013-4-59.155-1.318-4.143,1.364-10.565,4.647-9.538,9.926,1.065,5.466,9.436,5.149,13.728,6.031,9.891,2.031,41.214-3.29,46.86-5.1,4.369-1.405,8.607-3.809,12.824-5.425q4.189,3.785,8.082,7.752c-13.522,2.789-44.449,7-54.125,9.152-4.4.981-14.445,4.437-10.32,10.921,2.29,3.59,11.009,5.045,15.041,5.058,8.535.027,36.577-9.218,55.982-18.208,8.025,8.721,15.606,17.827,23.96,26.783C290.4,351.475,294.842,347.794,292.307,345.078Z" transform="translate(-64.128 -42.55)" fill="url(#linear-gradient-3)"/>
      </g>
      <g id="Group_7472" data-name="Group 7472" transform="translate(230.246 128.858)">
        <g id="Group_7452" data-name="Group 7452" transform="translate(0 53.828)">
          <path id="Path_18014" data-name="Path 18014" d="M495.669,325.493c0,32.68-18.654,62.292-48.881,83.929-2.509,1.785-5.076,3.542-7.752,5.215-1.56.977-3.123,1.924-4.74,2.844-.5.335-1,.613-1.534.92-2.955,1.7-5.967,3.319-9.09,4.853-2.342,1.17-4.74,2.286-7.166,3.346q-5.353,2.426-10.959,4.517a186.23,186.23,0,0,1-17.873,5.828c-.614.194-1.256.362-1.869.53a209.6,209.6,0,0,1-21.135,4.544c-5.521.949-11.182,1.673-16.9,2.231-3.709.335-7.446.614-11.21.753l-1.56.084c-3.319.168-6.664.223-10.039.223h-2.008c-93.326-.753-168.668-54.093-168.668-119.816,0-66.14,76.43-119.761,170.676-119.761C419.239,205.732,495.669,259.353,495.669,325.493Z" transform="translate(-154.288 -205.732)" fill="url(#linear-gradient-6)"/>
          <path id="Path_18015" data-name="Path 18015" d="M411.988,307.58c0,21.547-12.3,41.073-32.229,55.34-1.655,1.177-3.347,2.336-5.113,3.438-1.029.644-2.058,1.27-3.124,1.876-.332.221-.662.4-1.011.606-1.949,1.122-3.934,2.188-5.994,3.2-1.544.772-3.126,1.509-4.726,2.206q-3.528,1.6-7.224,2.978a122.151,122.151,0,0,1-11.786,3.843c-.4.128-.827.239-1.232.35a138.663,138.663,0,0,1-13.935,3c-3.642.626-7.372,1.1-11.143,1.471-2.445.221-4.91.4-7.39.5l-1.031.054c-2.188.111-4.394.148-6.618.148H298.1c-61.537-.5-111.215-35.669-111.215-79,0-43.612,50.395-78.968,112.54-78.968C361.593,228.612,411.988,263.967,411.988,307.58Z" transform="translate(-128.748 -187.808)" fill="url(#linear-gradient-7)"/>
          <path id="Path_18016" data-name="Path 18016" d="M266.322,260.311,314.816,294.4l6.767-.878-47.245-33.208Z" transform="translate(-66.523 -162.976)" fill="#e0e7ee"/>
          <path id="Path_18017" data-name="Path 18017" d="M263.84,283.13l48.494,34.086,6.767-.878L271.856,283.13Z" transform="translate(-68.468 -145.1)" fill="#e0e7ee"/>
          <g id="Group_7451" data-name="Group 7451" transform="translate(169.357 63.152)">
            <path id="Path_18018" data-name="Path 18018" d="M329.508,277.368l-5.038,23.608-.918,4.319-42.637-29.968,6.03-26.826-8.788-7.355-28.9,135.615h1.325c2.224,0,4.43-.037,6.618-.148l1.031-.054,3-13.386,15.537,11.417a138.655,138.655,0,0,0,13.935-3c.4-.111.828-.221,1.232-.35L263.833,351.5l5.883-26.162L312.574,356.8l-1.637,7.629c1.6-.7,3.182-1.434,4.726-2.206,2.06-1.011,5.056-2.684,7.005-3.806L338.3,284.723Zm-14.176,66.52-42.987-30.226,5.958-26.7,42.509,31.22Z" transform="translate(-249.252 -241.14)" fill="#fff"/>
            <path id="Path_18019" data-name="Path 18019" d="M313.089,265.582l-14.433,68.376c-1.655,1.177-3.347,2.336-5.113,3.438-1.029.644-2.058,1.27-3.124,1.876l15.628-73.691Z" transform="translate(-217.003 -221.999)" fill="#e0e7ee"/>
            <path id="Path_18020" data-name="Path 18020" d="M303.035,268.81l-8.782-7.355H301.3l8.782,7.355Z" transform="translate(-213.999 -225.231)" fill="#e0e7ee"/>
            <path id="Path_18021" data-name="Path 18021" d="M274.241,248.5h7.047l-8.782-7.355h-7.047Z" transform="translate(-236.556 -241.143)" fill="#e0e7ee"/>
            <path id="Path_18022" data-name="Path 18022" d="M273.026,245.267h7.047L274.058,272.1H267.01Z" transform="translate(-235.34 -237.913)" fill="#e0e7ee"/>
          </g>
        </g>
        <g id="Group_7471" data-name="Group 7471" transform="translate(56.314)">
          <g id="Group_7470" data-name="Group 7470" clip-path="url(#clip-path)">
            <g id="Group_7469" data-name="Group 7469" transform="translate(35.255 8.504)">
              <path id="Path_18023" data-name="Path 18023" d="M301.7,229.976c-2.921-9.482-8.917-17.113-13.577-25.722-1.2-2.215-2.666-4.33-3.752-6.618-.43-.908-2.691-5.334-5.022-9.875-3.24-6.317-10.176-9.061-16.373-6.479h0a14.413,14.413,0,0,0-8,8.965c-2.174,6.693-6.549,15.515-8.992,18.344-4.537,5.254-10.055,10.283-13.425,16.541-1.953,3.624-1.971,7.674-3.071,11.569,1.129-3.376,5.026-6.019,7.683-7.979.4,2.943-1.141,7.33-1.446,10.36a32.614,32.614,0,0,0,1.876,14.354c3.668,10.485,11.169,17.646,17.2,26.535,1.42,2.09,2.372,4.359,3.947,6.351.549.7,1.536,2.491,2.347,2.47,1.138-.03,4.014-3.775,4.792-4.524,7.569-7.312,17.186-11.674,22.727-21.17,3.717-6.372,4.776-13.495,7.255-20.284,1.321,3.816.765,8.145,1.778,12.013C301.024,246.694,304.376,238.685,301.7,229.976Z" transform="translate(-186.954 -180.318)" fill="#323bb4"/>
              <g id="Group_7453" data-name="Group 7453" transform="translate(60.738 169.953)">
                <path id="Path_18024" data-name="Path 18024" d="M265.141,362.035s-11.884,5.2-7.239,10.9c6.333,3.8,14.333,8.1,17.226,12.869a10.148,10.148,0,0,0,10.2,4.46c.451-.066.719-.116.719-.116a2.833,2.833,0,0,0,4.519-2.1c.075-3.558-2.4-9.57-13.925-18.609Z" transform="translate(-226.27 -207.917)" fill="#f9a101"/>
                <path id="Path_18025" data-name="Path 18025" d="M309.176,298.322h0l-.009-.011c-1.493-2.112-2.93-3.954-4.241-5.53-3.037-4.672-4.58-9.379-3.759-14.137l-41.64-.241-19.837-2.787c.25.892.485,1.785.729,2.679l-.025,0s-1.544,10.549,8,33.788c12.56,63.454,12.321,128.886,2.581,198.069l13.67.424c17.309-74.962,18.235-141.9,12.468-204.972l.788-.178c38.022,40.135,23.341,80.379.264,125.4l10.811,8.846C345.689,370.057,324.588,320.117,309.176,298.322Z" transform="translate(-239.692 -275.616)" fill="url(#linear-gradient-8)"/>
                <path id="Path_18026" data-name="Path 18026" d="M247.94,406.362s-8.5,7.922-1.578,10.415l33.98,2.918a2.833,2.833,0,0,0,2.789-4.13c-1.767-3.089-6.984-6.968-21.52-8.78Z" transform="translate(-236.592 -173.193)" fill="#f9a101"/>
              </g>
              <g id="Group_7454" data-name="Group 7454" transform="translate(104.715 61.547)">
                <path id="Path_18027" data-name="Path 18027" d="M266.871,217.375c-2.673,1.96-2.762,5.462-2.315,8.189a18.823,18.823,0,0,0,1.783,5.338c2.8,5.648,13.2,26,21.352,34.064A11.008,11.008,0,0,0,301.1,266.6c9.582-5.712,25.607-15.692,29.918-20.99-.583-.765-.376-.524-1.161-1.511s-2.42-3.278-3.494-4.444c-6.047,4.856-29.486,9.136-29.486,9.136s-13.75-20.587-16.637-28.737C278.52,215.5,273.658,212.393,266.871,217.375Z" transform="translate(-264.351 -214.829)" fill="url(#linear-gradient-9)"/>
                <path id="Path_18028" data-name="Path 18028" d="M303.735,241.386c7.9-4.234,14.337-9.409,16.14-18.718.317-1.634-2.737-3.494-5.2-1.814a24.529,24.529,0,0,0-7.4,9.04c-.341-1.213.244-3.367-.157-4.455s-.662-2.666-2.659-.922-4.533,7.592-5.282,10.838C300.619,237.463,302.246,239.307,303.735,241.386Z" transform="translate(-237.074 -210.627)" fill="#fab9b5"/>
              </g>
              <g id="Group_7455" data-name="Group 7455" transform="translate(0 59.581)">
                <path id="Path_18029" data-name="Path 18029" d="M280.218,216.939c2.466,2.213,2.211,5.709,1.5,8.377a18.973,18.973,0,0,1-2.3,5.138c-3.346,5.345-15.7,24.573-24.6,31.8a11.005,11.005,0,0,1-13.5.31c-8.976-6.627-23.942-18.133-27.712-23.828.654-.7.424-.485,1.3-1.391s2.73-3.023,3.913-4.077c5.541,5.425,28.447,11.988,28.447,11.988s15.706-19.137,19.38-26.965C268.808,213.927,273.951,211.312,280.218,216.939Z" transform="translate(-199.387 -213.727)" fill="url(#linear-gradient-10)"/>
                <path id="Path_18030" data-name="Path 18030" d="M219.862,237.573c-7.444-4.988-13.343-10.773-14.222-20.213-.155-1.657,3.067-3.208,5.354-1.293a24.5,24.5,0,0,1,6.481,9.721c.458-1.172.087-3.374.592-4.416s.92-2.59,2.739-.656,3.765,8,4.191,11.3C223.348,233.974,221.549,235.651,219.862,237.573Z" transform="translate(-205.634 -212.586)" fill="#fab9b5"/>
              </g>
              <path id="Path_18031" data-name="Path 18031" d="M304.586,330.79a42.524,42.524,0,0,1-16.5,6.615c-16.034,2.939-34.528-1.594-51.049-8.064a150.851,150.851,0,0,1,7.132-19.713c4.865-10.759,10.668-21.233,10.074-33.344a52.531,52.531,0,0,0-4.175-16.675,23.392,23.392,0,0,1-1.61-12.928c.533-3.331,1.566-6.584,2.231-9.883,1.042-5.578,7.9-22.4,7.9-22.4l3.772,1.8,4,1.889c.8-.093,2.543-.642,2.925-1.416a.729.729,0,0,0,.1-.339l-.121-2.359,12.5.166.194,1.967c.166,1.462-.075,2.586,1.48,2.663a12.006,12.006,0,0,0,4.137-.8c2.34-.81,4.483-1.921,4.772-1.906.08.005,8.788,30.915,7.346,38.747-1.666,9.118-6.333,15.867-7.278,25.392a29.23,29.23,0,0,0,1.207,10.4C299.369,307.9,304.586,330.79,304.586,330.79Z" transform="translate(-181.037 -153.954)" fill="url(#linear-gradient-11)"/>
              <path id="Path_18032" data-name="Path 18032" d="M264.091,239.961s-13.768.432-12.84-23.763l4,1.889c.8-.093,2.543-.642,2.925-1.416a.729.729,0,0,0,.1-.339l-.121-2.359,12.5.166.194,1.967c.166,1.462-.075,2.586,1.48,2.663a12.006,12.006,0,0,0,4.137-.8C277.891,228.692,272.8,239.676,264.091,239.961Z" transform="translate(-169.934 -153.954)" fill="#fab9b5"/>
              <path id="Path_18033" data-name="Path 18033" d="M255.535,220.418c5.577,1.348,9.491.321,12.361-2.2l-.676-9.459L254.7,211.644Z" transform="translate(-167.194 -158.04)" fill="#f7adab"/>
              <path id="Path_18034" data-name="Path 18034" d="M290.222,204.9a4.821,4.821,0,0,0-2.75.77,36.651,36.651,0,0,0-7.829-15.765,12.592,12.592,0,0,0-5.234-4.209,9.157,9.157,0,0,0-3.162-.956c-.726-.068-1.445-.1-2.154-.093q-1.065-.021-2.158.064a9.125,9.125,0,0,0-3.171.915,12.544,12.544,0,0,0-5.282,4.137,36.551,36.551,0,0,0-8.007,15.658,4.842,4.842,0,0,0-2.743-.806c-2.83.225-3.779,4.653-3.019,8.018.961,4.268,4.207,5.625,7.219,6.493a31.172,31.172,0,0,0,5.546,7.929,17.09,17.09,0,0,0,8.853,5.685c.1.027.2.048.307.073.2.046.4.107.6.144.137.025.278.027.416.045.118.014.234.023.351.036.268.025.537.043.808.043s.54-.011.81-.032c.118-.009.234-.018.351-.032.139-.016.28-.014.417-.037.205-.034.4-.094.6-.137.1-.021.205-.043.307-.07a17.017,17.017,0,0,0,8.919-5.569,31.04,31.04,0,0,0,5.635-7.85c3.021-.829,6.281-2.142,7.292-6.4C293.948,209.6,293.049,205.163,290.222,204.9Z" transform="translate(-175.218 -176.928)" fill="#fab9b5"/>
              <g id="Group_7468" data-name="Group 7468" transform="translate(83.326 26)">
                <g id="Group_7467" data-name="Group 7467">
                  <g id="Group_7457" data-name="Group 7457" transform="translate(2.068 6.838)">
                    <g id="Group_7456" data-name="Group 7456">
                      <path id="Path_18035" data-name="Path 18035" d="M253.52,200.555a1.728,1.728,0,1,0,1.618-1.821A1.731,1.731,0,0,0,253.52,200.555Z" transform="translate(-253.517 -198.731)" fill="#323bb4"/>
                    </g>
                  </g>
                  <g id="Group_7459" data-name="Group 7459" transform="translate(16.078 6.932)">
                    <g id="Group_7458" data-name="Group 7458">
                      <path id="Path_18036" data-name="Path 18036" d="M261.376,200.607a1.728,1.728,0,1,0,1.618-1.819A1.73,1.73,0,0,0,261.376,200.607Z" transform="translate(-261.373 -198.784)" fill="#323bb4"/>
                    </g>
                  </g>
                  <g id="Group_7461" data-name="Group 7461" transform="translate(0 2.035)">
                    <g id="Group_7460" data-name="Group 7460">
                      <path id="Path_18037" data-name="Path 18037" d="M252.715,199.416l-.052-.02a.5.5,0,0,1-.262-.665,4.224,4.224,0,0,1,5.439-2.434.5.5,0,0,1,.294.649.5.5,0,0,1-.656.294,3.244,3.244,0,0,0-4.143,1.9A.509.509,0,0,1,252.715,199.416Z" transform="translate(-252.358 -196.038)" fill="#323bb4"/>
                    </g>
                  </g>
                  <g id="Group_7463" data-name="Group 7463" transform="translate(15.092)">
                    <g id="Group_7462" data-name="Group 7462">
                      <path id="Path_18038" data-name="Path 18038" d="M260.9,196.179l-.027-.048a.5.5,0,0,1,.225-.678,4.236,4.236,0,0,1,5.769,1.537.509.509,0,0,1-.886.5,3.248,3.248,0,0,0-4.421-1.134A.516.516,0,0,1,260.9,196.179Z" transform="translate(-260.82 -194.897)" fill="#323bb4"/>
                    </g>
                  </g>
                  <g id="Group_7465" data-name="Group 7465" transform="translate(4.692 16.551)">
                    <g id="Group_7464" data-name="Group 7464">
                      <path id="Path_18039" data-name="Path 18039" d="M255.089,205.751c-.012-.02-.023-.039-.034-.059a.616.616,0,0,1,.276-.831,5.2,5.2,0,0,1,7.084,1.885.625.625,0,0,1-1.088.615,3.991,3.991,0,0,0-5.43-1.393A.631.631,0,0,1,255.089,205.751Z" transform="translate(-254.988 -204.178)" fill="#323bb4"/>
                    </g>
                  </g>
                  <g id="Group_7466" data-name="Group 7466" transform="translate(11.702 10.837)">
                    <path id="Path_18040" data-name="Path 18040" d="M259.411,205.914a.489.489,0,1,1,0-.977c.009,0,.952-.018,1.2-.519.112-.232.225-.952-1.136-2.654a.485.485,0,0,1,.08-.687.5.5,0,0,1,.7.08c1.275,1.594,1.685,2.8,1.25,3.688a2.448,2.448,0,0,1-2.087,1.07Z" transform="translate(-258.919 -200.974)" fill="#323bb4"/>
                  </g>
                </g>
              </g>
              <path id="Path_18041" data-name="Path 18041" d="M287.386,196.4a18.524,18.524,0,0,0-11.933-13.192c-6.022-2.046-13.773-1.621-19.26,1.534-6.939,3.988-12.034,13.928-8.469,21.918,1.141,2.557,1.988,6.322,4.016,8.319.952-2.93.41-6.112,1.614-8.888a36.638,36.638,0,0,0,6.342-1.755,28.721,28.721,0,0,0,8.619-5.108,28.3,28.3,0,0,0,4.753-5.5c-1.163,2.5.637,7.176,2.365,9.036,1.509,1.625,3.822,2.2,5.346,3.9a7.821,7.821,0,0,1,1.746,5.181,14.354,14.354,0,0,1-.581,4.63c.15-.5,1.17-1.273,1.5-1.746a15.691,15.691,0,0,0,1.332-2.315,24.187,24.187,0,0,0,1.757-5.182C287.245,203.992,288.1,199.534,287.386,196.4Z" transform="translate(-173.578 -179.031)" fill="#323bb4"/>
            </g>
          </g>
        </g>
      </g>
      <text id="OOPS_" data-name="OOPS!" transform="translate(316.018 109.862)" fill="#ff7e57" font-size="59" font-family="JosefinSans-SemiBold, Josefin Sans" font-weight="600"><tspan x="0" y="0">OOPS!</tspan></text>
      <text id="I_have_an_issues_:_" data-name="I have an issues :(" transform="translate(244.293 473.543)" fill="#fff" font-size="45" font-family="JosefinSans-Regular, Josefin Sans"><tspan x="0" y="0">I have an issues :(</tspan></text>
    </g>
  </g>
</svg>
