<svg xmlns="http://www.w3.org/2000/svg" xmlns:xlink="http://www.w3.org/1999/xlink" width="580" height="504.405" viewBox="0 0 580 504.405">
  <defs>
    <clipPath id="clip-path">
      <path id="Path_5068" data-name="Path 5068" d="M621.575,285.113A106.582,106.582,0,0,0,772.3,435.843a24.6,24.6,0,0,0-34.784-34.784A57.391,57.391,0,0,1,656.359,319.9a24.6,24.6,0,1,0-34.784-34.782" transform="translate(-590.407 -277.908)" fill="none"/>
    </clipPath>
    <linearGradient id="linear-gradient" x1="-2.363" y1="2.724" x2="-2.358" y2="2.724" gradientUnits="objectBoundingBox">
      <stop offset="0" stop-color="#1b1464"/>
      <stop offset="0.005" stop-color="#1b1464"/>
      <stop offset="0.123" stop-color="#3e387c"/>
      <stop offset="0.363" stop-color="#827eaa"/>
      <stop offset="0.579" stop-color="#b7b5ce"/>
      <stop offset="0.764" stop-color="#dedde8"/>
      <stop offset="0.91" stop-color="#f6f6f9"/>
      <stop offset="1" stop-color="#fff"/>
    </linearGradient>
    <clipPath id="clip-path-2">
      <path id="Path_5069" data-name="Path 5069" d="M439.888,307.15A86.086,86.086,0,0,0,561.631,428.893a24.6,24.6,0,0,0-34.783-34.783,36.894,36.894,0,0,1-52.176-52.177,24.6,24.6,0,1,0-34.784-34.783" transform="translate(-414.674 -299.945)" fill="none"/>
    </clipPath>
    <linearGradient id="linear-gradient-2" x1="-2.046" y1="3.259" x2="-2.041" y2="3.259" gradientUnits="objectBoundingBox">
      <stop offset="0" stop-color="#1b1464"/>
      <stop offset="0.118" stop-color="#3e387c"/>
      <stop offset="0.359" stop-color="#827eaa"/>
      <stop offset="0.577" stop-color="#b7b5ce"/>
      <stop offset="0.763" stop-color="#dedde8"/>
      <stop offset="0.91" stop-color="#f6f6f9"/>
      <stop offset="1" stop-color="#fff"/>
    </linearGradient>
  </defs>
  <g id="Group_986" data-name="Group 986" transform="translate(-231 -1124.644)">
    <g id="logo">
      <text id="movie_house" data-name="movie house" transform="translate(521 1603.048)" fill="#fff" font-size="103" font-family="SegoeUI, Segoe UI"><tspan x="-289.964" y="0">movie house</tspan></text>
      <g id="Group_7415" data-name="Group 7415" transform="translate(318 1124.644)">
        <g id="Group_7410" data-name="Group 7410" transform="translate(192.05 23.963)">
          <g id="Group_7409" data-name="Group 7409" transform="translate(0 0)" clip-path="url(#clip-path)">
            <rect id="Rectangle_406" data-name="Rectangle 406" width="257.029" height="263.162" transform="translate(-83.196 154.88) rotate(-64.822)" fill="url(#linear-gradient)"/>
          </g>
        </g>
        <g id="Group_7412" data-name="Group 7412" transform="translate(0 48.046)">
          <g id="Group_7411" data-name="Group 7411" transform="translate(0 0)" clip-path="url(#clip-path-2)">
            <rect id="Rectangle_407" data-name="Rectangle 407" width="208.728" height="209.778" transform="translate(-62.768 121.77) rotate(-62.731)" fill="url(#linear-gradient-2)"/>
          </g>
        </g>
        <g id="Group_7414" data-name="Group 7414" transform="translate(18.027 0)">
          <g id="Group_7416" data-name="Group 7416">
            <path id="Path_5070" data-name="Path 5070" d="M636.932,329.136a24.515,24.515,0,0,0,17.391-7.2,57.456,57.456,0,0,1,81.163,0,24.6,24.6,0,0,0,34.784-34.783,106.7,106.7,0,0,0-150.73,0,24.6,24.6,0,0,0,17.392,41.987" transform="translate(-414.349 -255.981)" fill="#fff"/>
            <path id="Path_5071" data-name="Path 5071" d="M585.54,588.142A106.219,106.219,0,0,0,660.9,556.974L782.649,435.231a106.825,106.825,0,0,0,0-150.731l-34.784,34.785a57.63,57.63,0,0,1,0,81.163L626.121,522.191a57.391,57.391,0,0,1-81.161-81.164l11.063-11.062L521.239,395.18l-11.064,11.064a106.533,106.533,0,0,0,75.365,181.9" transform="translate(-426.728 -253.333)" fill="#fff"/>
            <path id="Path_5072" data-name="Path 5072" d="M542.726,437.613a24.515,24.515,0,0,0,17.391-7.2A86.085,86.085,0,1,0,438.374,308.665a24.6,24.6,0,1,0,34.783,34.783,36.895,36.895,0,0,1,52.177,52.177,24.6,24.6,0,0,0,17.392,41.987" transform="translate(-431.169 -253.431)" fill="#fff"/>
          </g>
        </g>
        <ellipse id="Ellipse_57" data-name="Ellipse 57" cx="69.5" cy="70.5" rx="69.5" ry="70.5" transform="translate(230 38.404)" fill="#4951ff"/>
        <g id="Arrow_-_Down" data-name="Arrow - Down" transform="translate(274.047 69.767)">
          <path id="Fill_1" data-name="Fill 1" d="M1.4,22.327,0,6.451a6.514,6.514,0,0,1,13.028,0l-1.4,15.876a5.11,5.11,0,0,1-10.22,0" transform="translate(19.237 0)" fill="#fff" opacity="0.4"/>
          <path id="Fill_4" data-name="Fill 4" d="M20.9,42.013c-.251-.248-1.309-1.175-2.189-2.046C13.2,34.888,4.2,21.625,1.442,14.686A20.719,20.719,0,0,1,0,9.541a8.584,8.584,0,0,1,.941-3.9A8.092,8.092,0,0,1,4.822,2.168,42.013,42.013,0,0,1,9.388,1.049,101.436,101.436,0,0,1,25.721,0,117.121,117.121,0,0,1,41.548.927c.066.061,4.259.744,5.7,1.489A7.787,7.787,0,0,1,51.5,9.293v.248A21.59,21.59,0,0,1,49.75,15.3c-2.756,6.568-11.327,19.518-17.023,24.724a24.431,24.431,0,0,1-2.378,2.107,7.587,7.587,0,0,1-4.567,1.489,7.966,7.966,0,0,1-4.883-1.61" transform="translate(0 33.625)" fill="#fff"/>
        </g>
      </g>
    </g>
  </g>
</svg>
