<svg xmlns="http://www.w3.org/2000/svg" width="105.707" height="105.707" viewBox="0 0 105.707 105.707">
  <g id="Back" transform="translate(105.874 0.072) rotate(90)">
    <path id="Fill_1" data-name="Fill 1" d="M105.707,52.853A52.853,52.853,0,1,1,52.853,0a52.91,52.91,0,0,1,52.853,52.853" transform="translate(-0.072 0.167)" fill="#fff" opacity="0.14"/>
    <g id="Arrow_-_Left" data-name="Arrow - Left" transform="translate(32.217 22.018)">
      <path id="Fill_1-2" data-name="Fill 1" d="M1.126,17.9,0,5.173a5.224,5.224,0,0,1,10.447,0L9.322,17.9a4.1,4.1,0,0,1-8.2,0" transform="translate(15.426 0)" fill="#fff" opacity="0.4"/>
      <path id="Fill_4" data-name="Fill 4" d="M16.759,33.69c-.2-.2-1.05-.942-1.755-1.641C10.588,27.977,3.366,17.341,1.156,11.777A16.614,16.614,0,0,1,0,7.651,6.884,6.884,0,0,1,.754,4.52,6.489,6.489,0,0,1,3.867,1.738a33.69,33.69,0,0,1,3.662-.9A81.342,81.342,0,0,1,20.626,0,93.919,93.919,0,0,1,33.317.743a28.424,28.424,0,0,1,4.568,1.194A6.245,6.245,0,0,1,41.3,7.452v.2a17.313,17.313,0,0,1-1.4,4.621C37.684,17.54,30.812,27.924,26.244,32.1a19.591,19.591,0,0,1-1.907,1.689,6.084,6.084,0,0,1-3.662,1.194,6.388,6.388,0,0,1-3.916-1.291" transform="translate(0 26.964)" fill="#fff"/>
    </g>
  </g>
</svg>
