<svg xmlns="http://www.w3.org/2000/svg" width="71.636" height="71.636" viewBox="0 0 71.636 71.636">
  <g id="Arrow_-_Left_Circle" data-name="Arrow - Left Circle" transform="translate(71.803 0.072) rotate(90)">
    <path id="Fill_1" data-name="Fill 1" d="M71.636,35.818A35.818,35.818,0,1,1,35.818,0,35.856,35.856,0,0,1,71.636,35.818" transform="translate(-0.072 0.167)" fill="#fff" opacity="0.14"/>
    <g id="Category" transform="translate(23.752 48.691) rotate(-90)">
      <path id="Fill_1-2" data-name="Fill 1" d="M3.225,0h4.3a3.239,3.239,0,0,1,3.225,3.253V7.591a3.239,3.239,0,0,1-3.225,3.253h-4.3A3.239,3.239,0,0,1,0,7.591V3.253A3.239,3.239,0,0,1,3.225,0" transform="translate(14.659 0)" fill="#fff" opacity="0.4"/>
      <path id="Combined_Shape" data-name="Combined Shape" d="M17.884,25.412a3.239,3.239,0,0,1-3.225-3.252V17.821a3.239,3.239,0,0,1,3.225-3.253h4.3a3.239,3.239,0,0,1,3.225,3.253v4.339a3.239,3.239,0,0,1-3.225,3.252Zm-14.658,0A3.24,3.24,0,0,1,0,22.159V17.821a3.24,3.24,0,0,1,3.226-3.253h4.3a3.239,3.239,0,0,1,3.225,3.253v4.339a3.239,3.239,0,0,1-3.225,3.252Zm0-14.568A3.239,3.239,0,0,1,0,7.591V3.252A3.239,3.239,0,0,1,3.226,0h4.3a3.238,3.238,0,0,1,3.225,3.252V7.591a3.238,3.238,0,0,1-3.225,3.253Z" transform="translate(0 0)" fill="#fff"/>
    </g>
  </g>
</svg>
