<svg id="Play" xmlns="http://www.w3.org/2000/svg" width="67.281" height="67.281" viewBox="0 0 67.281 67.281">
  <path id="Fill_1" data-name="Fill 1" d="M67.281,33.657A33.641,33.641,0,1,1,33.641,0,33.681,33.681,0,0,1,67.281,33.657" fill="#040616" opacity="0.4"/>
  <path id="Fill_4" data-name="Fill 4" d="M23.548,13.473a3.878,3.878,0,0,1-.8,2.387,12.989,12.989,0,0,1-.937,1.046l-.2.2C18.8,20.081,11.808,24.561,8.262,26a11.689,11.689,0,0,1-3.111.916H5.017A4.22,4.22,0,0,1,1.3,24.692a18.374,18.374,0,0,1-.8-2.976A59.3,59.3,0,0,1,0,13.44,51.177,51.177,0,0,1,.569,4.905a21.468,21.468,0,0,1,.6-2.387A4.291,4.291,0,0,1,3.044.491,4.784,4.784,0,0,1,5.151,0,11.582,11.582,0,0,1,7.927.752,51.214,51.214,0,0,1,21.575,9.777c.468.458.97,1.017,1.1,1.145a4.069,4.069,0,0,1,.87,2.551" transform="translate(23.548 20.184)" fill="#fff"/>
</svg>
