<svg xmlns="http://www.w3.org/2000/svg" width="70.546" height="70.546" viewBox="0 0 70.546 70.546">
  <g id="Repeat" transform="translate(0.5 0.501)">
    <path id="Union_1" data-name="Union 1" d="M-10210.455-972.2a34.822,34.822,0,0,1,34.772-34.8,34.824,34.824,0,0,1,34.773,34.8,34.8,34.8,0,0,1-34.773,34.75A34.8,34.8,0,0,1-10210.455-972.2Z" transform="translate(10210.455 1007)" fill="#040616" stroke="rgba(0,0,0,0)" stroke-miterlimit="10" stroke-width="1"/>
    <path id="reload_1_" data-name="reload (1)" d="M29.734,20.6a1,1,0,0,0-1.395.264l-2.047,3a13.293,13.293,0,1,0-3.6,12.219,1,1,0,1,0-1.419-1.42A11.292,11.292,0,1,1,24.4,24.656l-3.563-2.43A1,1,0,1,0,19.7,23.884l5.315,3.625h0a1,1,0,0,0,.266.128l.008,0c.016,0,.032.007.047.011a.99.99,0,0,0,1.073-.406L30,21.994A1,1,0,0,0,29.734,20.6Z" transform="translate(21.187 9.668)" fill="#fff"/>
  </g>
</svg>
