<svg xmlns="http://www.w3.org/2000/svg" width="193" height="193" viewBox="0 0 193 193">
  <g id="Search" transform="translate(-837 -2044)">
    <g id="Group_7412" data-name="Group 7412">
      <g id="_" data-name="+" transform="translate(-53 -226)">
        <path id="Path_5066" data-name="Path 5066" d="M96.5,0A96.5,96.5,0,1,1,0,96.5,96.5,96.5,0,0,1,96.5,0Z" transform="translate(890 2270)" fill="#4951ff"/>
      </g>
    </g>
    <g id="Search-2" data-name="Search" transform="translate(897 2106)">
      <path id="Search-3" data-name="Search" d="M63.2,66.685l-.278-.236-10.5-10.241a32.578,32.578,0,0,1-20.143,6.917C14.479,63.125,0,48.966,0,31.564S14.479,0,32.274,0,64.551,14.159,64.551,31.564a31.063,31.063,0,0,1-8.5,21.321L66.431,63.007a2.4,2.4,0,0,1,0,3.439,2.53,2.53,0,0,1-3.237.239ZM4.972,31.564c0,14.724,12.249,26.7,27.3,26.7S59.58,46.288,59.58,31.564s-12.249-26.7-27.306-26.7S4.972,16.84,4.972,31.564Z" fill="#fff" stroke="#fff" stroke-width="4"/>
    </g>
  </g>
</svg>
