<svg id="Share" xmlns="http://www.w3.org/2000/svg" width="85.311" height="96.319" viewBox="0 0 85.311 96.319">
  <path id="Path_17959" data-name="Path 17959" d="M179.89,650.25a20.64,20.64,0,1,0,20.64,20.64A20.64,20.64,0,0,0,179.89,650.25Z" transform="translate(-115.218 -650.25)" fill="#fff"/>
  <path id="Path_17960" data-name="Path 17960" d="M188.726,655.779a28.955,28.955,0,0,0,9.813,13.292l-11.828,9.335a18.267,18.267,0,0,1,.314,3.358,18.006,18.006,0,0,1-.4,3.765l18.3,10.595a15.137,15.137,0,1,1-4.144,10.408v-.088l-19.677-11.388a17.886,17.886,0,1,1-4.629-29.605Z" transform="translate(-151.25 -625.348)" fill="#fff"/>
</svg>
